<svg xmlns="http://www.w3.org/2000/svg" viewBox="0 0 174.84 178.38"><defs><style>.cls-1{fill:#1f4c84;}</style></defs><g id="圖層_2" data-name="圖層 2"><path class="cls-1" d="M167.23,24.36A51.25,51.25,0,0,0,72.4,49.17l-.05,0a61.45,61.45,0,0,0,2.24,17.62c4.5,14.71,4,26.86-1.41,36.1a29.15,29.15,0,0,1-6.33,7.48A21.36,21.36,0,1,1,51,74.55l0-.08H64.69c5.57-1,4.64-6.35,4.64-6.35h0a68.09,68.09,0,0,1-2.31-21,51.22,51.22,0,1,0,5.18,95.45c14.5-6.87,25-20.76,28.51-36.56v-.27h.06a52,52,0,0,0,.31-20.95h.08a44.15,44.15,0,0,0-1.17-5c-4.75-15.46-4.39-27.9,1.05-37a26.3,26.3,0,0,1,16.17-12l0,.11a21.32,21.32,0,1,1,6.67,41.63v.08H110.36c-5.41.34-5.49,3.79-5.29,5.14,0,.14.06.29.1.44a65.45,65.45,0,0,1,2.25,22.05c.24,1.58,1.32,5.06,6.55,5.32v.16h8v0a21.37,21.37,0,1,1-21.17,22h0v-6a57.62,57.62,0,0,1-25.65,25.41,51.17,51.17,0,1,0,82.15-57.29A51.2,51.2,0,0,0,167.23,24.36Z"/></g></svg>